# xmcd
# 
# Track frame offsets:
#     150
#     17422
#     35572
#     50067
#     64660
#     81470
#     95857
#     110742
#     123475
#     140362
#     152707
#     167940
#     187234
#     204400
#     215442
#     229897
#     252545
# 
# Disc length: 3635
# 
# Revision: 0
# Processed by: cddbd v1.5.2PL0 Copyright (c) Steve Scherf et al.
# Submitted via: fre:ac v1.0.31
# 
DISCID=050e3111
DTITLE=John Denver - Spirit
DYEAR=2003
DGENRE=Rock/Pop
TTITLE0=Come And Let Me Look In Your Eyes
TTITLE1=Eli's Song
TTITLE2=Wrangle Mountain Song
TTITLE3=Hitchhiker
TTITLE4=In The Grand Way
TTITLE5=Polka Dots And Moonbeams
TTITLE6=It Makes Me Giggle
TTITLE7=Baby, You Look Good To Me Tonight
TTITLE8=Like A Sad Song
TTITLE9=San Antonio Rose
TTITLE10=Pegasus
TTITLE11=The Wings That Fly Us Home
TTITLE12=Whose Garden Was This
TTITLE13=The Game Is Over
TTITLE14=Eleanor Rigby
TTITLE15=Old Folks
TTITLE16=Medley: Golden Slumber - Sweet Sweet Life - Tremble If You Must (Version II)
EXTD=
EXTT0=
EXTT1=
EXTT2=
EXTT3=
EXTT4=
EXTT5=
EXTT6=
EXTT7=
EXTT8=
EXTT9=
EXTT10=
EXTT11=
EXTT12=
EXTT13=
EXTT14=
EXTT15=
EXTT16=
PLAYORDER=
